#!OML:ASF E:\Style4\Style4.ASF
:FULLY-SPECIFIED
:DEGREES
2791
root 0.544069 16.9994 -0.396726 -3.70509 -4.41721 2.76155
lowerback 7.85912 2.13292 -3.61936
upperback 2.48268 2.55425 0.0659051
thorax -1.99347 1.27368 1.855
lowerneck -0.552431 -5.17702 -5.99583
upperneck -3.84979 -6.76131 6.52374
head -0.666383 -3.37434 3.13326
rclavicle -9.18137e-015 -1.03368e-014
rhumerus 23.5222 -5.92265 -58.3273
rradius 98.1771
rwrist -51.6098
rhand -12.6487 22.7574
rfingers 7.12502
rthumb 13.4318 -6.78952
lclavicle -9.18137e-015 -1.03368e-014
lhumerus 20.183 -0.0103367 58.1245
lradius 107.28
lwrist 61.8399
lhand -3.44227 27.1585
lfingers 7.12502
lthumb 22.2895 55.893
rfemur -16.0525 -0.591592 13.6709
rtibia 48.6034
rfoot -25.8673 -13.8274
rtoes -17.7511
lfemur -13.0589 4.0113 -24.0578
ltibia 45.9208
lfoot -28.6972 9.28199
ltoes -14.1401
2792
root 0.543912 17.0003 -0.399068 -3.69645 -4.40873 2.8265
lowerback 7.813 2.1362 -3.66427
upperback 2.50581 2.55732 0.0548003
thorax -1.94554 1.27419 1.87052
lowerneck -0.57269 -5.17603 -5.99554
upperneck -3.85183 -6.75921 6.50963
head -0.664158 -3.37284 3.12779
rclavicle 4.48508e-015 -8.94531e-015
rhumerus 23.5106 -5.86868 -58.3549
rradius 98.1305
rwrist -51.5384
rhand -12.8846 22.7323
rfingers 7.12502
rthumb 13.2044 -6.82949
lclavicle 4.48508e-015 -8.94531e-015
lhumerus 20.1862 -0.0251573 58.1681
lradius 107.259
lwrist 61.9691
lhand -3.60775 26.7139
lfingers 7.12502
lthumb 22.1306 55.4673
rfemur -16.0868 -0.608589 13.5953
rtibia 48.6155
rfoot -25.8282 -13.8552
rtoes -17.8398
lfemur -13.0578 4.00329 -24.1331
ltibia 45.8901
lfoot -28.6548 9.31888
ltoes -13.9803
2793
root 0.54273 16.9999 -0.401305 -3.71798 -4.40934 2.88994
lowerback 7.73881 2.15377 -3.7495
upperback 2.57496 2.57914 0.0696793
thorax -1.83846 1.28241 1.93559
lowerneck -0.625146 -5.18582 -5.99271
upperneck -3.84002 -6.77102 6.46739
head -0.652066 -3.37757 3.11071
rclavicle 6.80837e-015 6.36111e-015
rhumerus 23.5836 -5.88293 -58.3604
rradius 98.0699
rwrist -51.4693
rhand -13.0622 22.699
rfingers 7.12502
rthumb 13.0332 -6.87387
lclavicle 6.80837e-015 6.36111e-015
lhumerus 20.2653 -0.044767 58.2651
lradius 107.197
lwrist 61.8628
lhand -3.732 26.221
lfingers 7.12502
lthumb 22.0113 54.9885
rfemur -16.0856 -0.629252 13.5178
rtibia 48.6313
rfoot -25.822 -13.8043
rtoes -17.5697
lfemur -13.0391 4.00373 -24.2039
ltibia 45.8676
lfoot -28.64 9.35585
ltoes -13.9293
2794
root 0.541465 16.9999 -0.403109 -3.74133 -4.39812 2.86317
lowerback 7.72456 2.15104 -3.71402
upperback 2.60571 2.57989 0.0908078
thorax -1.79832 1.28172 1.93866
lowerneck -0.584157 -5.17786 -6.02854
upperneck -3.87462 -6.76111 6.48215
head -0.669191 -3.37289 3.1247
rclavicle 5.06404e-014 -1.45113e-014
rhumerus 23.5971 -5.85925 -58.3732
rradius 98.0445
rwrist -51.3895
rhand -13.1417 22.6353
rfingers 7.12502
rthumb 12.9566 -6.94238
lclavicle 5.06404e-014 -1.45113e-014
lhumerus 20.2608 -0.159425 58.2476
lradius 107.143
lwrist 61.6558
lhand -3.84104 26.0315
lfingers 7.12502
lthumb 21.9066 54.8113
rfemur -16.0482 -0.662326 13.5467
rtibia 48.6387
rfoot -25.8848 -13.7015
rtoes -17.463
lfemur -13.0173 4.03194 -24.1645
ltibia 45.866
lfoot -28.6127 9.33001
ltoes -13.9825
2795
root 0.540683 17.0003 -0.405967 -3.74957 -4.38714 2.86713
lowerback 7.72681 2.14458 -3.6838
upperback 2.62732 2.57385 0.089437
thorax -1.77552 1.27809 1.92133
lowerneck -0.541654 -5.16356 -6.03938
upperneck -3.95586 -6.74103 6.50072
head -0.702882 -3.36351 3.13667
rclavicle -5.73991e-015 5.56597e-015
rhumerus 23.64 -5.84788 -58.3865
rradius 97.9664
rwrist -51.3807
rhand -13.1542 22.615
rfingers 7.12502
rthumb 12.9445 -6.96349
lclavicle -5.73991e-015 5.56597e-015
lhumerus 20.295 -0.220622 58.2462
lradius 107.074
lwrist 61.5703
lhand -3.84038 26.0306
lfingers 7.12502
lthumb 21.9072 54.8103
rfemur -16.0464 -0.6851 13.5428
rtibia 48.6544
rfoot -25.9678 -13.6509
rtoes -17.4229
lfemur -13.0162 4.03435 -24.1631
ltibia 45.8734
lfoot -28.6089 9.32426
ltoes -14.0736
2796
root 0.538957 16.9989 -0.410023 -3.74234 -4.40767 2.83059
lowerback 7.70949 2.14191 -3.63666
upperback 2.65139 2.57558 0.114252
thorax -1.74034 1.27809 1.92154
lowerneck -0.51722 -5.15036 -6.05353
upperneck -4.01137 -6.72291 6.4982
head -0.725733 -3.35457 3.14086
rclavicle -8.89561e-015 1.07344e-014
rhumerus 23.6751 -5.79041 -58.3518
rradius 97.8871
rwrist -51.3558
rhand -13.3106 22.6831
rfingers 7.12502
rthumb 12.7938 -6.9049
lclavicle -8.89561e-015 1.07344e-014
lhumerus 20.316 -0.247088 58.3025
lradius 107.055
lwrist 61.5404
lhand -3.89153 26.1691
lfingers 7.12502
lthumb 21.8581 54.9545
rfemur -16.0873 -0.677498 13.5944
rtibia 48.6765
rfoot -25.9274 -13.7101
rtoes -17.2856
lfemur -13.0475 4.05333 -24.1078
ltibia 45.8954
lfoot -28.6628 9.26795
ltoes -14.0491
2797
root 0.537695 16.9976 -0.413788 -3.73795 -4.43744 2.85515
lowerback 7.72791 2.14192 -3.6604
upperback 2.63896 2.57282 0.11701
thorax -1.76432 1.2772 1.937
lowerneck -0.480262 -5.11827 -6.04356
upperneck -3.99641 -6.68247 6.49097
head -0.73074 -3.33495 3.13803
rclavicle 7.85199e-015 -4.96962e-015
rhumerus 23.7196 -5.68675 -58.3673
rradius 97.747
rwrist -51.1952
rhand -13.4533 22.8144
rfingers 7.12502
rthumb 12.6562 -6.78212
lclavicle 7.85199e-015 -4.96962e-015
lhumerus 20.2995 -0.312329 58.326
lradius 107.023
lwrist 61.4716
lhand -4.00329 26.2457
lfingers 7.12502
lthumb 21.7508 55.0436
rfemur -16.1434 -0.653063 13.5774
rtibia 48.7186
rfoot -25.922 -13.7102
rtoes -16.992
lfemur -13.0767 4.08619 -24.1246
ltibia 45.9056
lfoot -28.6563 9.35532
ltoes -14.4488
2798
root 0.535679 16.9972 -0.416886 -3.74331 -4.46891 2.91549
lowerback 7.76723 2.15338 -3.72236
upperback 2.6137 2.58089 0.104957
thorax -1.81472 1.2823 1.95647
lowerneck -0.444999 -5.10573 -6.06679
upperneck -3.95829 -6.66803 6.52672
head -0.723673 -3.32836 3.15493
rclavicle -8.27441e-015 1.19271e-015
rhumerus 23.7302 -5.61158 -58.3885
rradius 97.6327
rwrist -50.992
rhand -13.5769 22.7517
rfingers 7.12502
rthumb 12.537 -6.85222
lclavicle -8.27441e-015 1.19271e-015
lhumerus 20.2608 -0.445631 58.3127
lradius 106.97
lwrist 61.3569
lhand -3.97783 26.2135
lfingers 7.12502
lthumb 21.7753 55.0086
rfemur -16.1911 -0.645843 13.5182
rtibia 48.7675
rfoot -25.9788 -13.6429
rtoes -16.8936
lfemur -13.0947 4.12189 -24.174
ltibia 45.913
lfoot -28.6471 9.28733
ltoes -14.0518
